Format                           : Matroska
File size                        : 598 MiB
Duration                         : 1h 26mn
Overall bit rate                 : 970 Kbps
Movie name                       : Horton.Hears.a.Who!.
Encoded date                     : UTC 2011-04-22 09:46:07
Writing application              : mkvmerge v4.7.0 ('Just Like You Imagined') built on Apr 21 2011 01:13:14
Writing library                  : libebml v1.2.0 + libmatroska v1.1.0

Video
ID                               : 1
Format                           : AVC
Format/Info                      : Advanced Video Codec
Format profile                   : Main@L3.1
Format settings, CABAC           : Yes
Format settings, ReFrames        : 4 frames
Format settings, GOP             : M=3, N=32
Muxing mode                      : Container profile=Unknown@3.1
Codec ID                         : V_MPEG4/ISO/AVC
Duration                         : 1h 26mn
Bit rate                         : 842 Kbps
Width                            : 1 280 pixels
Height                           : 688 pixels
Display aspect ratio             : 1.860
Frame rate mode                  : Variable
Frame rate                       : 23.976 fps
Color space                      : YUV
Chroma subsampling               : 4:2:0
Bit depth                        : 8 bits
Scan type                        : Progressive
Bits/(Pixel*Frame)               : 0.040
Stream size                      : 507 MiB (85%)
Writing library                  : x264 core 112
Encoding settings                : cabac=1 / ref=2 / deblock=1:0:0 / analyse=0x1:0x111 / me=hex / subme=6 / psy=1 / psy_rd=1.00:0.00 / mixed_ref=0 / me_range=16 / chroma_me=1 / trellis=0 / 8x8dct=0 / cqm=0 / deadzone=21,11 / fast_pskip=1 / chroma_qp_offset=-2 / threads=6 / sliced_threads=0 / nr=0 / decimate=1 / interlaced=0 / constrained_intra=0 / bframes=2 / b_pyramid=2 / b_adapt=1 / b_bias=0 / direct=1 / weightb=0 / open_gop=0 / weightp=2 / keyint=240 / keyint_min=23 / scenecut=40 / intra_refresh=0 / rc_lookahead=40 / rc=2pass / mbtree=1 / bitrate=842 / ratetol=1.0 / qcomp=0.60 / qpmin=3 / qpmax=51 / qpstep=4 / cplxblur=20.0 / qblur=0.5 / ip_ratio=1.40 / aq=1:1.00
Color primaries                  : BT.709-5, BT.1361, IEC 61966-2-4, SMPTE RP177
Transfer characteristics         : BT.709-5, BT.1361
Matrix coefficients              : BT.709-5, BT.1361, IEC 61966-2-4 709, SMPTE RP177

Audio
ID                               : 2
Format                           : AC-3
Format/Info                      : Audio Coding 3
Mode extension                   : CM (complete main)
Codec ID                         : A_AC3
Duration                         : 1h 26mn
Bit rate mode                    : Constant
Bit rate                         : 128 Kbps
Channel(s)                       : 2 channels
Channel positions                : Front: L R
Sampling rate                    : 48.0 KHz
Bit depth                        : 16 bits
Stream size                      : 78.9 MiB (13%)

no subs HELP ME SEED!